<svg width="24" height="25" viewBox="0 0 24 25" fill="none" xmlns="http://www.w3.org/2000/svg">
<path d="M18.0955 15.4248C17.755 16.2434 17.3173 16.938 16.7336 17.5333C16.1499 18.1287 15.469 18.6 14.6908 18.9473C13.9125 19.2946 13.0613 19.4682 12.1615 19.4682C11.2617 19.4682 10.4348 19.2946 9.68088 18.9473C8.92697 18.6 8.24602 18.1287 7.68666 17.5333C7.10299 16.938 6.66524 16.2186 6.32476 15.4C5.98429 14.5814 5.83837 13.6636 5.83837 12.6713C5.83837 11.6791 6.00861 10.786 6.32476 9.96744C6.66524 9.14883 7.10299 8.45426 7.68666 7.85891C8.27034 7.26356 8.92698 6.79223 9.70521 6.46975C10.4834 6.14727 11.3103 5.97363 12.2101 5.97363C13.1343 5.97363 13.9855 6.14727 14.7394 6.46975C15.5176 6.79223 16.1986 7.26356 16.7579 7.85891C17.293 8.42945 17.7064 9.0744 18.0469 9.81859H23.8107C23.6647 9.14882 23.4458 8.50386 23.1783 7.88371C22.546 6.42014 21.6948 5.15503 20.6004 4.08836C19.5061 3.0217 18.2414 2.17828 16.7822 1.58294C15.3231 0.987587 13.7666 0.689911 12.1372 0.689911C10.4834 0.689911 8.95129 0.987587 7.49211 1.58294C6.05724 2.17828 4.79262 3.0217 3.69824 4.08836C2.60385 5.15503 1.75265 6.42014 1.12034 7.90851C0.488023 9.37208 0.171875 10.9845 0.171875 12.7457C0.171875 14.4573 0.488028 16.045 1.09602 17.5333C1.72833 18.9969 2.55521 20.2868 3.62528 21.3783C4.69535 22.4698 5.95997 23.3132 7.39484 23.9085C8.8297 24.5039 10.3862 24.8015 12.0642 24.8015C13.7666 24.8015 15.3474 24.5039 16.8066 23.9085C18.2657 23.3132 19.5304 22.4698 20.6248 21.3783C21.7191 20.2868 22.5703 19.0217 23.1783 17.5333C23.4458 16.8636 23.6647 16.1938 23.8107 15.4744H18.0955" fill="black"/>
</svg>
