<svg width="35" height="32" viewBox="0 0 35 32" fill="none" xmlns="http://www.w3.org/2000/svg">
<path d="M33.4932 9.25271C32.6906 7.36744 31.5962 5.73024 30.1857 4.34109C28.7751 2.95194 27.0728 1.88528 25.1272 1.14109C23.1573 0.396904 21.0172 0.0248108 18.6825 0.0248108H7.3981V11.262H2.7044L1.99914 14.0155H7.42243V17.1163H1.2209L0.515625 19.8698H7.44675V31.107H18.7311C21.0658 31.107 23.2059 30.7349 25.1758 29.9907C27.1457 29.2465 28.8238 28.1798 30.2343 26.8155C31.6449 25.4512 32.7636 23.814 33.5418 21.9039C34.3444 19.9938 34.7335 17.8853 34.7335 15.6031C34.6848 13.2465 34.2957 11.138 33.4932 9.25271ZM27.6564 19.5721C27.1944 20.7876 26.5134 21.8047 25.6622 22.6729C24.811 23.5411 23.7896 24.1861 22.6223 24.6574C21.4549 25.1287 20.1416 25.3519 18.7311 25.3519H13.4294V19.845H20.3605V17.0915H13.4294V13.9907H20.3605V11.2372H13.4294V5.73024H18.7311C20.2146 5.73024 21.5279 5.9783 22.7195 6.47442C23.8869 6.97055 24.9083 7.66512 25.7595 8.53334C26.6107 9.40155 27.243 10.4434 27.7051 11.6341C28.1672 12.8248 28.386 14.1395 28.386 15.5535C28.3617 17.0419 28.1428 18.3814 27.6564 19.5721Z" fill="#800080"/>
</svg>
