<svg width="39" height="25" viewBox="0 0 39 25" fill="none" xmlns="http://www.w3.org/2000/svg">
<path d="M29.1977 0.6651C30.7055 0.6651 32.0431 0.888359 33.2347 1.33487C34.4264 1.78138 35.4478 2.42635 36.2747 3.26976C37.1016 4.11317 37.7339 5.13021 38.1716 6.2961C38.6094 7.46199 38.8283 8.75193 38.8283 10.1659V24.0574H33.0888V11.431C33.0888 9.71936 32.6511 8.37983 31.7999 7.38758C30.9487 6.42014 29.7327 5.92401 28.1276 5.92401C26.4009 5.92401 25.0147 6.49457 24.0419 7.61084C23.0448 8.72712 22.5584 10.2403 22.5584 12.1504V24.0574H16.8676V11.3566C16.8676 9.64495 16.4298 8.30541 15.5543 7.33797C14.6788 6.37052 13.4628 5.89921 11.9063 5.89921C10.131 5.89921 8.76908 6.46975 7.79629 7.63564C6.8235 8.80154 6.33711 10.3395 6.33711 12.2496V24.0574H0.597656V1.33487H6.33711V4.26201C7.0667 3.09612 8.06382 2.20309 9.32844 1.58293C10.5931 0.962778 12.0522 0.6651 13.7303 0.6651C15.5056 0.6651 17.0135 1.01239 18.2781 1.68216C19.5427 2.35192 20.5398 3.31937 21.2451 4.58448C22.0477 3.34417 23.1177 2.40154 24.4796 1.70696C25.8172 1.01239 27.398 0.6651 29.1977 0.6651Z" fill="black"/>
</svg>
