<svg width="25" height="25" viewBox="0 0 25 25" fill="none" xmlns="http://www.w3.org/2000/svg">
<path d="M24.6882 1.33487H19.2406L19.2162 4.6341C18.3407 3.24495 17.222 2.2279 15.8601 1.60774C14.4982 0.987585 13.1606 0.6651 11.8474 0.6651C10.1936 0.6651 8.66147 0.987585 7.27524 1.60774C5.8647 2.2279 4.67304 3.09611 3.65161 4.21239C2.63018 5.30386 1.85195 6.59379 1.2926 8.05735C0.733243 9.52092 0.441406 11.1333 0.441406 12.8449C0.441406 14.507 0.733243 16.0449 1.2926 17.4837C1.85195 18.9225 2.63018 20.1876 3.60297 21.2791C4.60008 22.3705 5.76742 23.2139 7.15365 23.8341C8.53987 24.4542 10.0477 24.7519 11.6528 24.7519C13.0147 24.7519 14.3523 24.4294 15.7142 23.8093C17.0761 23.1891 18.2191 22.1969 19.1676 20.8325V24.0822H24.6639V1.33487H24.6882ZM18.9001 15.276C18.5839 16.0946 18.1218 16.8139 17.5382 17.4341C16.9545 18.0542 16.2492 18.5504 15.4224 18.9225C14.5955 19.2946 13.6956 19.4682 12.7229 19.4682C11.823 19.4682 10.9475 19.2946 10.145 18.9721C9.34242 18.6496 8.63715 18.1783 8.05348 17.5829C7.4698 16.9876 7.00773 16.2682 6.66725 15.4496C6.32677 14.631 6.15654 13.7132 6.15654 12.7209C6.15654 11.7287 6.32677 10.8108 6.66725 9.99223C7.00773 9.17363 7.4698 8.45426 8.07779 7.85891C8.68579 7.26356 9.39106 6.79223 10.1936 6.46975C10.9962 6.14727 11.8717 5.97363 12.7715 5.97363C13.7443 5.97363 14.6441 6.17207 15.471 6.54417C16.2979 6.91626 17.0031 7.41239 17.5625 8.05735C18.1462 8.67751 18.5839 9.4217 18.9001 10.2155C19.2162 11.0341 19.3865 11.8775 19.3865 12.7457C19.3865 13.6139 19.2162 14.4573 18.9001 15.276Z" fill="black"/>
</svg>
